<?xml version="1.0" encoding="utf-8"?>
<!-- Generator: Adobe Illustrator 19.2.1, SVG Export Plug-In . SVG Version: 6.00 Build 0)  -->
<svg version="1.1" id="Ebene_1" xmlns="http://www.w3.org/2000/svg" xmlns:xlink="http://www.w3.org/1999/xlink" x="0px" y="0px"
	 viewBox="0 0 1000 1000" style="enable-background:new 0 0 1000 1000;" xml:space="preserve">
<style type="text/css">
	.st0{fill:#FFFFFF;}
</style>
<g>
	<circle id="frankreich_2_" class="st0" cx="248.8" cy="556" r="75.4"/>
	<circle id="england_2_" class="st0" cx="216.5" cy="383.4" r="36.6"/>
	<circle id="deutschland_2_" class="st0" cx="390.2" cy="474.8" r="65.6"/>
	<circle id="italien_2_" class="st0" cx="409.1" cy="638.6" r="58.4"/>
	<circle id="belgien_2_" class="st0" cx="303.1" cy="466.3" r="16.6"/>
	<circle id="portugal_1_" class="st0" cx="23" cy="688.8" r="22"/>
	<circle id="spanien_2_" class="st0" cx="123.7" cy="639.3" r="70.2"/>
	<circle id="rumänien_2_" class="st0" cx="628.2" cy="627.2" r="37.9"/>
	<circle id="russland_2_" class="st0" cx="869" cy="274.9" r="132"/>
	<circle id="ukraine_2_" class="st0" cx="731.7" cy="550" r="66.5"/>
	<circle id="tschechien_2_" class="st0" cx="490.4" cy="500.9" r="20.8"/>
	<circle id="island_2_" class="st0" cx="146.3" cy="153.6" r="22"/>
	<circle id="albanien_2_" class="st0" cx="565.1" cy="748.2" r="20.5"/>
	<circle id="wales_2_" class="st0" cx="176.1" cy="423.5" r="15"/>
	<circle id="polen_2_" class="st0" cx="551.1" cy="447.7" r="49"/>
	<circle id="türkei_2_" class="st0" cx="831.1" cy="784.9" r="88"/>
	<circle id="irland_2_" class="st0" cx="149.1" cy="391.2" r="22"/>
	<circle id="österreich_2_" class="st0" cx="462.1" cy="553.4" r="26.8"/>
	<circle id="schweiz_2_" class="st0" cx="352.5" cy="566" r="25.4"/>
	<circle id="slowakei_2_" class="st0" cx="569.8" cy="527.6" r="25.2"/>
	<circle id="nordirland_2_" class="st0" cx="163.9" cy="346.1" r="22"/>
	<circle id="kroatien_2_" class="st0" cx="518" cy="709.5" r="21.9"/>
	<circle id="schweden_2_" class="st0" cx="492.1" cy="217.2" r="40.9"/>
	<circle id="ungarn_2_" class="st0" cx="545.2" cy="643.1" r="32.7"/>
	<circle id="niederlande_2_" class="st0" cx="315.7" cy="429.2" r="15"/>
	<circle id="griechenland_2_" class="st0" cx="609.1" cy="798.5" r="37.3"/>
	<circle id="dänemark_2_" class="st0" cx="392.1" cy="379.4" r="23.6"/>
	<circle id="bulgarien_2_" class="st0" cx="659.5" cy="710.7" r="38.1"/>
	<circle id="schottland_2_" class="st0" cx="208.6" cy="312.3" r="22"/>
	<circle id="lettland_2_" class="st0" cx="658.4" cy="335" r="15"/>
	<circle id="slowenien_2_" class="st0" cx="525.1" cy="571.1" r="28"/>
	<circle id="norwegen_2_" class="st0" cx="403" cy="258.1" r="40.9"/>
	<circle id="finnland_2_" class="st0" cx="608.6" cy="207" r="60.5"/>
</g>
</svg>
