<?xml version="1.0" encoding="utf-8"?>
<!-- Generator: Adobe Illustrator 16.0.0, SVG Export Plug-In . SVG Version: 6.00 Build 0)  -->
<!DOCTYPE svg PUBLIC "-//W3C//DTD SVG 1.1//EN" "http://www.w3.org/Graphics/SVG/1.1/DTD/svg11.dtd">
<svg version="1.1" id="Ebene_1" xmlns="http://www.w3.org/2000/svg" xmlns:xlink="http://www.w3.org/1999/xlink" x="0px" y="0px"
	 width="500px" height="409px" viewBox="0 0 500 409" enable-background="new 0 0 500 409" xml:space="preserve">
<g>
	<path fill="#F1F1F1" d="M249.746,402.455c-58.062-29.541-122.432-65.891-133.964-77.899V22.272c0-7.933,6.455-14.388,14.388-14.388
		h239.156c7.933,0,14.388,6.455,14.388,14.388v302.284C372.18,336.567,307.812,372.918,249.746,402.455z"/>
	<g>
		<defs>
			<path id="SVGID_1_" d="M249.746,402.455c-58.062-29.541-122.432-65.891-133.964-77.899V36.661
				c0-7.934,6.455-14.389,14.388-14.389h239.156c7.933,0,14.388,6.455,14.388,14.389v287.895
				C372.18,336.567,307.812,372.918,249.746,402.455z"/>
		</defs>
		<clipPath id="SVGID_2_">
			<use xlink:href="#SVGID_1_"  overflow="visible"/>
		</clipPath>
		<g clip-path="url(#SVGID_2_)">
			<circle fill="#292929" cx="252.995" cy="323.222" r="96.165"/>
			<g>
				<g>
					<circle fill="#FFFFFF" cx="252.154" cy="323.195" r="93.986"/>
					<g>
						<polygon fill="#292929" points="268.741,311.917 228.707,336.778 228.263,336.061 268.296,311.203 268.741,311.917 						"/>
						<path fill="#292929" d="M270.902,275.729h-0.004l-0.515,0.665c-0.011-0.008-5.121-3.979-12.656-8.585l0,0
							c-7.534-4.606-17.24-8.812-26.834-11.302l-0.236-1.024l0.402,0.006C250.868,259.767,270.877,275.716,270.902,275.729
							L270.902,275.729z"/>
						<path fill="#292929" d="M200.841,273.468c-3.468,12.858-4.047,24.731-3.758,33.382l0,0c0.287,8.654,1.434,14.054,1.436,14.067
							l0,0l-0.824,0.177c-0.002-0.039-4.656-21.919,2.333-47.846l0,0L200.841,273.468L200.841,273.468z"/>
						<path fill="#292929" d="M302.235,331.324c4.429,19.095-1.032,41.09-1.032,41.122l0,0h-0.001l-0.817-0.204
							c0-0.014,1.351-5.46,2.157-13.297l0,0c0.809-7.831,1.062-18.024-1.127-27.431l0,0c-0.311-1.344-0.672-2.669-1.09-3.974l0,0
							l0.803-0.256C301.554,328.613,301.922,329.963,302.235,331.324L302.235,331.324z"/>
						<path fill="#292929" d="M253.54,386.429c8.195,3.454,14.684,5.159,14.765,5.182l0,0l-0.213,0.815
							c-0.028-0.017-26.287-6.864-40.079-21.101l0,0l0.606-0.586C235.373,377.728,245.304,382.964,253.54,386.429L253.54,386.429z"
							/>
						<path fill="#292929" d="M303.259,248.411c2.945,12.703-1.214,24.44-1.226,24.479l0,0l0,0l-0.792-0.281
							c-0.003-0.008,1.017-2.879,1.68-7.333l0,0c0.66-4.453,0.959-10.463-0.483-16.672l0,0c-0.235-1.006-0.511-2.019-0.846-3.032
							l0,0l0.799-0.262C302.732,246.347,303.02,247.383,303.259,248.411L303.259,248.411z"/>
						<path fill="#292929" d="M174.925,341.492c3.913,1.656,6.515,1.993,6.52,1.993l0,0h-0.002l-0.106,0.84
							c-0.054-0.01-10.85-1.438-21.189-12.116l0,0l0.61-0.587C165.832,336.87,171.013,339.836,174.925,341.492L174.925,341.492z"/>
						<path fill="#292929" d="M198.241,374.635c0.009,0.018-0.978,9.295,1.776,21.148l0,0c0.306,1.319,0.661,2.668,1.062,4.036l0,0
							l-0.404,0.12c-0.401-1.378-0.759-2.733-1.067-4.06l0,0c-2.771-11.925-1.785-21.273-1.785-21.29l0,0L198.241,374.635
							L198.241,374.635z"/>
						<path fill="#292929" d="M343.293,315.577l-0.609,0.577c-1.895-2.021-7.273-4.873-12.128-7.145l0,0
							c-4.858-2.284-9.207-4.035-9.216-4.039l0,0l0.312-0.78C321.684,304.218,339.097,311.172,343.293,315.577L343.293,315.577z"/>
						<path fill="#292929" d="M344.489,341.987c-8.654,28.002-26.494,38.872-26.52,38.889l0,0h-0.002l-0.22-0.359
							c0.009-0.015,4.423-2.691,9.932-8.869l0,0c5.513-6.18,12.101-15.846,16.409-29.783l0,0L344.489,341.987L344.489,341.987z"/>
						<path fill="#FFFFFF" d="M267.464,409.331c0,0-21.896,6.815-44.167,3.348c0,0,25.483,4.882,44.422-2.258L267.464,409.331z"/>
						<path fill="#292929" d="M184.705,267.65c0,0-7.543,2.256-14.382,11.264c0,0,3.743-6.992,14.342-12.985L184.705,267.65z"/>
						<path fill="#292929" d="M231.941,240.324c0,0,7.939-5.518,23.536-10.008c0,0-15.313,2.911-24.345,8.684L231.941,240.324z"/>
					</g>
					<g>
						<path fill="#292929" d="M320.931,379.044c-6.755,15.193-24.371,27.354-24.371,27.354c-17.148,6.372-30.688,4.744-30.688,4.744
							l0.536-20.006c15.475-5.322,35.201-20.854,35.201-20.854L320.931,379.044z"/>
						<path fill="#1D1D1B" d="M302.182,331.829c0,0-27.494-16.662-35.219-18.901c0,0,2.185-29.029,1.247-38.03
							c0,0,19.193-7.916,34.805-5.207c0,0,14.069,13.44,20.71,35.813C323.725,305.503,312.099,324.915,302.182,331.829z"/>
						<path fill="#1D1D1B" d="M233.791,256.963c0,0-23.544,7.778-34.464,21.549c0,0-8.59-7.222-16.842-10.491
							c0,0,10.177-19.955,20.807-25.494c0,0,13.768-6.741,32.323-5.002C235.614,237.524,233.164,245.584,233.791,256.963z"/>
						<path fill="#292929" d="M231.106,373.119c0,0-0.502-26.965,0.363-38.114c0,0-23.156-11.617-33.936-18.332
							c0,0-17.853,17.4-18.617,26.51c0,0,3.816,20.146,19.025,34.762C197.941,377.944,213.453,382.696,231.106,373.119z"/>
						<path fill="#1D1D1B" d="M229.292,371.982c0,0-0.476-25.617,0.348-36.21c0,0-21.998-11.036-32.238-17.416
							c0,0-16.963,16.531-17.69,25.185c0,0,3.628,19.139,18.076,33.023C197.787,376.564,212.52,381.081,229.292,371.982z"/>
						<path fill="#292929" d="M343.57,346.369c4.039-14.197,4.264-29.466,0.431-44.515c-0.039-0.153-0.075-0.306-0.115-0.457
							c-0.29,4.33-0.993,10.413-2.688,13.587C341.198,314.984,345.429,333.206,343.57,346.369z"/>
						<path fill="#292929" d="M302.606,249.33c0,0,6.135,0.885,12.634,3.782c-14.396-12.934-32.608-21.315-52.164-23.595
							C273.496,231.879,291.916,237.513,302.606,249.33z"/>
						<path fill="#292929" d="M159.013,308.376c-1.77,11.103-1.574,22.702,0.891,34.328c0.076-3.537,0.585-7.084,1.957-9.678
							C161.86,333.026,159.43,321.586,159.013,308.376z"/>
						<path fill="#292929" d="M200.265,397.861c-6.807-0.952-15.021-8.4-20.655-14.406c12.224,14.695,28.68,25.357,47.04,30.531
							C213.636,408.62,200.265,397.861,200.265,397.861z"/>
					</g>
					<g opacity="0.2">
						<path fill="#292929" d="M262.246,313.97l-27.852,17.245c-1.976,1.221-5.247,1.334-7.3,0.247l-24.745-13.077
							c-2.056-1.086-2-1.198,0.121-0.251l24.14,10.782c2.122,0.945,5.506,0.828,7.558-0.266l27.945-14.915
							C264.164,312.641,264.221,312.746,262.246,313.97z"/>
						<path fill="#292929" d="M303.351,332.205c0,0,3.777,24.621-1.345,37.91l18.245,7.862l-16.244-8.542
							C304.007,369.436,307.957,352.96,303.351,332.205z"/>
						<path fill="#292929" d="M321.232,379.404c0,0-4.408,12.334-19.885,23.854C301.348,403.259,315.896,395.196,321.232,379.404z"
							/>
						<path fill="#292929" d="M269.219,273.653c0,0-17.988-14.187-34.875-18.042c0,0-0.9-6.347,1.524-16.994
							c0,0-1.279,10.312-0.355,16.147C235.513,254.765,252.22,258.157,269.219,273.653z"/>
						<path fill="#292929" d="M199.939,278.66c0,0-3.833,16.988-1.49,37.297c0,0-0.295-23.595,2.023-34.074
							c0.301-1.361,1.503-3.602,2.5-4.578c3.792-3.711,13.948-12.475,30.396-19.378C233.369,257.927,214.499,262.743,199.939,278.66
							z"/>
						<path fill="#292929" d="M196.542,317.049c0,0-15.974,14.946-17.932,25.124C178.609,342.173,179.427,329.883,196.542,317.049z"
							/>
					</g>
				</g>
				<path opacity="0.1" fill="#292929" d="M343.7,301.923c-7.765-33.408-32.458-58.467-62.902-68.242
					c7.375,10.655,12.928,22.835,16.04,36.223c13.218,56.892-22.184,113.727-79.076,126.945c-6.821,1.586-13.641,2.453-20.388,2.687
					c21.219,15.215,48.621,21.581,76.053,15.206C323.984,402.994,355.447,352.484,343.7,301.923z"/>
			</g>
		</g>
	</g>
	<polygon fill="#3DB29C" points="115.827,252.067 6.721,252.067 40.027,213.418 6.721,174.769 115.827,174.769 	"/>
	<polygon fill="#3B9E8B" points="115.827,252.067 75.863,215.7 75.863,138.401 115.827,174.769 	"/>
	<polygon fill="#3DB29C" points="384.058,252.067 493.164,252.067 459.858,213.418 493.164,174.769 384.058,174.769 	"/>
	<polygon fill="#3B9E8B" points="384.058,252.067 422.586,215.7 422.586,138.401 384.058,174.769 	"/>
	<rect x="75.863" y="138.401" fill="#34C6AA" width="347.365" height="77.299"/>
	<g>
		<path fill="#F1F1F1" d="M170.477,163.265c3.149,0,3.854-1.519,4.483-3.26h2.742v25.934h-4.075v-19.784h-3.149V163.265z"/>
		<path fill="#F1F1F1" d="M196.628,179.493c0,4.372-2.001,6.743-6.224,6.743c-4.001,0-6.076-2.371-6.076-6.521v-0.667h3.853v0.926
			c0,1.853,0.815,2.557,2.112,2.557c1.445,0,2.26-0.704,2.26-3.187v-4.742c-0.704,1.482-1.963,2.297-3.779,2.297
			c-3.001,0-4.52-2.111-4.52-5.928v-4.742c0-4.149,2.186-6.521,6.187-6.521c4.001,0,6.188,2.371,6.188,6.521V179.493z
			 M192.552,170.638v-4.668c0-1.852-0.815-2.519-2.112-2.519c-1.296,0-2.111,0.667-2.111,2.519v4.668
			c0,1.852,0.815,2.556,2.111,2.556C191.737,173.194,192.552,172.49,192.552,170.638z"/>
		<path fill="#F1F1F1" d="M202.188,166.452c0-4.372,2-6.743,6.224-6.743c4.001,0,6.076,2.371,6.076,6.521v0.667h-3.853v-0.926
			c0-1.852-0.815-2.556-2.111-2.556c-1.445,0-2.26,0.704-2.26,3.186v4.742c0.704-1.482,1.963-2.297,3.779-2.297
			c3.001,0,4.52,2.112,4.52,5.928v4.742c0,4.149-2.186,6.521-6.187,6.521s-6.187-2.371-6.187-6.521V166.452z M206.263,175.306v4.668
			c0,1.853,0.815,2.52,2.112,2.52s2.112-0.667,2.112-2.52v-4.668c0-1.853-0.815-2.557-2.112-2.557S206.263,173.454,206.263,175.306z
			"/>
		<path fill="#F1F1F1" d="M220.014,166.229c0-4.149,2.186-6.521,6.187-6.521c4.001,0,6.187,2.371,6.187,6.521v13.486
			c0,4.149-2.186,6.521-6.187,6.521c-4.001,0-6.187-2.371-6.187-6.521V166.229z M224.089,179.974c0,1.853,0.815,2.557,2.112,2.557
			c1.297,0,2.112-0.704,2.112-2.557V165.97c0-1.852-0.815-2.556-2.112-2.556c-1.296,0-2.112,0.704-2.112,2.556V179.974z"/>
		<path fill="#F1F1F1" d="M240.098,171.305h18.524v3.334h-18.524V171.305z"/>
		<path fill="#F1F1F1" d="M271.666,163.414c-1.296,0-2.111,0.704-2.111,2.556v2.779h-3.854v-2.52c0-4.149,2.075-6.521,6.076-6.521
			c4.002,0,6.076,2.371,6.076,6.521c0,8.151-8.113,11.189-8.113,15.449c0,0.186,0,0.371,0.037,0.556h7.706v3.705h-11.782v-3.186
			c0-7.632,8.077-8.892,8.077-16.375C273.778,164.043,272.963,163.414,271.666,163.414z"/>
		<path fill="#F1F1F1" d="M283.287,166.229c0-4.149,2.186-6.521,6.188-6.521c4.001,0,6.187,2.371,6.187,6.521v13.486
			c0,4.149-2.186,6.521-6.187,6.521c-4.002,0-6.188-2.371-6.188-6.521V166.229z M287.362,179.974c0,1.853,0.815,2.557,2.112,2.557
			c1.296,0,2.111-0.704,2.111-2.557V165.97c0-1.852-0.815-2.556-2.111-2.556c-1.297,0-2.112,0.704-2.112,2.556V179.974z"/>
		<path fill="#F1F1F1" d="M302.514,163.265c3.149,0,3.854-1.519,4.483-3.26h2.741v25.934h-4.075v-19.784h-3.149V163.265z"/>
		<path fill="#F1F1F1" d="M316.436,166.452c0-4.372,2.001-6.743,6.224-6.743c4.002,0,6.076,2.371,6.076,6.521v0.667h-3.853v-0.926
			c0-1.852-0.815-2.556-2.112-2.556c-1.444,0-2.26,0.704-2.26,3.186v4.742c0.704-1.482,1.964-2.297,3.779-2.297
			c3.001,0,4.52,2.112,4.52,5.928v4.742c0,4.149-2.186,6.521-6.187,6.521c-4.002,0-6.188-2.371-6.188-6.521V166.452z
			 M320.511,175.306v4.668c0,1.853,0.815,2.52,2.112,2.52c1.296,0,2.111-0.667,2.111-2.52v-4.668c0-1.853-0.815-2.557-2.111-2.557
			C321.326,172.75,320.511,173.454,320.511,175.306z"/>
	</g>
	<g>
		<polygon fill="#34C6AA" points="145.073,230.292 148.719,241.517 160.523,241.517 150.974,248.454 154.622,259.677 
			145.073,252.741 135.527,259.677 139.173,248.454 129.625,241.517 141.427,241.517 		"/>
		<polygon fill="#34C6AA" points="354.421,230.292 358.068,241.517 369.872,241.517 360.322,248.454 363.97,259.677 
			354.421,252.741 344.875,259.677 348.522,248.454 338.973,241.517 350.775,241.517 		"/>
	</g>
	<g>
		<path d="M226.091,49.873h-31.405v12.364h28.933V82.02h-28.933v14.095h32.518v20.648h-55.145V30.213h54.032V49.873z"/>
		<path d="M319.07,29.966h8.037v86.797H304.48V76.826l-18.423,19.288h-2.596l-18.423-19.288v39.937h-22.627V29.966h8.037
			l34.372,37.464L319.07,29.966z"/>
	</g>
</g>
</svg>
