<?xml version="1.0" encoding="utf-8"?>
<!-- Generator: Adobe Illustrator 16.0.0, SVG Export Plug-In . SVG Version: 6.00 Build 0)  -->
<!DOCTYPE svg PUBLIC "-//W3C//DTD SVG 1.1//EN" "http://www.w3.org/Graphics/SVG/1.1/DTD/svg11.dtd">
<svg version="1.1" id="Capa_1" xmlns="http://www.w3.org/2000/svg" xmlns:xlink="http://www.w3.org/1999/xlink" x="0px" y="0px"
	 width="651.555px" height="512px" viewBox="0 0 651.555 512" enable-background="new 0 0 651.555 512" xml:space="preserve">
<path fill="#FFFFFF" d="M617.309,232.879h-338.19V34.252c0-18.913-15.338-34.25-34.256-34.25H34.245C15.327,0.002,0,15.34,0,34.248
	v443.499c0,18.924,15.333,34.252,34.245,34.252H173.81h71.058h372.437c18.912,0,34.25-15.338,34.25-34.256V267.125
	C651.555,248.207,636.217,232.879,617.309,232.879z M104.696,20.259h69.728c1.652,0,2.986,1.339,2.986,2.991
	c0,1.652-1.339,2.985-2.986,2.985h-69.728c-1.652,0-2.991-1.339-2.991-2.985C101.704,21.598,103.043,20.259,104.696,20.259z
	 M14.504,456.354V55.657h250.11v177.222H173.81c-18.924,0-34.251,15.333-34.251,34.246v189.229H14.504z M156.932,396.348v-47.813
	c0-7.586,6.136-13.729,13.717-13.729c7.586,0,13.728,6.143,13.728,13.729v47.813c0,7.586-6.142,13.729-13.728,13.729
	C163.073,410.07,156.932,403.93,156.932,396.348z M101.928,480.908c0-7.586,6.142-13.729,13.728-13.729h23.904v10.568
	c0,6.139,1.622,11.895,4.449,16.877h-28.353C108.07,494.625,101.928,488.488,101.928,480.908z M595.9,497.494H195.204V247.383H595.9
	V497.494z M631.297,407.303c0,1.652-1.338,2.986-2.99,2.986s-2.986-1.34-2.986-2.986v-69.729c0-1.652,1.34-2.99,2.986-2.99
	c1.652,0,2.99,1.338,2.99,2.99V407.303z"/>
	<path fill="#FFFFFF" d="M572.985,134.151c-2.881-3.249-7.85-3.547-11.098-0.667l-21.139,18.744
		C532.547,76.626,468.34,17.58,390.594,17.58c-4.031,0-7.3,3.268-7.3,7.3c0,4.031,3.269,7.3,7.3,7.3
		c70.139,0,128.078,53.198,135.609,121.363l-22.621-20.058c-3.248-2.88-8.217-2.582-11.098,0.667
		c-2.879,3.249-2.581,8.217,0.668,11.098l33.717,29.897c1.496,1.327,3.357,1.979,5.213,1.979c0.219,0,0.436-0.015,0.652-0.033
		c0.218,0.018,0.436,0.033,0.652,0.033c1.855,0,3.717-0.652,5.213-1.979l33.718-29.897
		C575.567,142.368,575.865,137.4,572.985,134.151z"/>
</svg>
