<?xml version="1.0" encoding="utf-8"?>
<!-- Generator: Adobe Illustrator 18.0.0, SVG Export Plug-In . SVG Version: 6.00 Build 0)  -->
<!DOCTYPE svg PUBLIC "-//W3C//DTD SVG 1.1//EN" "http://www.w3.org/Graphics/SVG/1.1/DTD/svg11.dtd">
<svg version="1.1" id="Layer_1" xmlns="http://www.w3.org/2000/svg" xmlns:xlink="http://www.w3.org/1999/xlink" x="0px" y="0px"
	 viewBox="0 0 291 291" enable-background="new 0 0 291 291" xml:space="preserve">
<g id="Schweiz">
	<path fill="#CD4325" d="M145.5,72c-67.9,0-125,46.6-141,109.5c16,63,73.1,109.5,141,109.5s125-46.6,141-109.5
		C270.5,118.6,213.5,72,145.5,72z"/>
	<circle fill="#FFFFFF" cx="145.5" cy="145.5" r="145.5"/>
	<path fill="#CD4325" d="M145.5,72c-67.9,0-125,46.6-141,109.5c16,63,73.1,109.5,141,109.5s125-46.6,141-109.5
		C270.5,118.6,213.5,72,145.5,72z"/>
	<g>
		<defs>
			<path id="SVGID_13_" d="M145.5,72c-67.9,0-125,46.6-141,109.5c16,63,73.1,109.5,141,109.5s125-46.6,141-109.5
				C270.5,118.6,213.5,72,145.5,72z"/>
		</defs>
		<clipPath id="SVGID_2_">
			<use xlink:href="#SVGID_13_"  overflow="visible"/>
		</clipPath>
		<g clip-path="url(#SVGID_2_)">
			<rect x="-40.5" y="-0.4" fill="#C65C4E" width="372" height="45.2"/>
			<rect x="-40.5" y="245.5" fill="#C65C4E" width="372" height="45.2"/>
			<rect x="-40.5" y="163.5" fill="#C65C4E" width="372" height="45.2"/>
			<rect x="-40.5" y="81.6" fill="#C65C4E" width="372" height="45.2"/>
		</g>
	</g>
</g>
</svg>
